<svg xmlns="http://www.w3.org/2000/svg" xmlns:xlink="http://www.w3.org/1999/xlink" width="18" height="18" viewBox="0 0 18 18">
  <defs>
    <clipPath id="clip-path">
      <rect id="Rectangle_254" data-name="Rectangle 254" width="18" height="18" fill="none"/>
    </clipPath>
  </defs>
  <g id="Group_181" data-name="Group 181" transform="translate(0 0)">
    <g id="Group_180" data-name="Group 180" transform="translate(0 0)" clip-path="url(#clip-path)">
      <path id="Path_445" data-name="Path 445" d="M17.095,19.028a2.5,2.5,0,0,1-2.056-1.053.276.276,0,0,1,.438-.336,2.132,2.132,0,0,0,2.7.6l.025-.011a1.056,1.056,0,0,0,.585-1.1,1.3,1.3,0,0,0-.891-1.089s-.815-.243-1.616-.48a1.534,1.534,0,0,1-1.252-1.583,1.474,1.474,0,0,1,.5-1.126,2.487,2.487,0,0,1,1.7-.489,2.166,2.166,0,0,1,2.117,1.457.276.276,0,0,1-.53.153,1.607,1.607,0,0,0-1.593-1.059,1.977,1.977,0,0,0-1.336.353.925.925,0,0,0-.308.718,1,1,0,0,0,.857,1.047c.8.237,1.615.48,1.615.48a1.843,1.843,0,0,1,1.285,1.568,1.61,1.61,0,0,1-.917,1.656,3.223,3.223,0,0,1-1.321.295" transform="translate(-8.167 -6.738)" fill="#1e1e1e"/>
      <path id="Path_446" data-name="Path 446" d="M19.575,11.384a.275.275,0,0,1-.276-.276V9.833a.276.276,0,1,1,.551,0v1.276a.275.275,0,0,1-.276.276" transform="translate(-10.52 -5.21)" fill="#1e1e1e"/>
      <path id="Path_447" data-name="Path 447" d="M19.575,27.823a.275.275,0,0,1-.276-.276V26.272a.276.276,0,1,1,.551,0v1.276a.275.275,0,0,1-.276.276" transform="translate(-10.52 -14.171)" fill="#1e1e1e"/>
      <path id="Path_448" data-name="Path 448" d="M10.71,18.283a7.572,7.572,0,1,1,7.572-7.572,7.581,7.581,0,0,1-7.572,7.572m0-14.593a7.021,7.021,0,1,0,7.021,7.021A7.029,7.029,0,0,0,10.71,3.69" transform="translate(-1.711 -1.711)" fill="#1e1e1e"/>
      <path id="Path_449" data-name="Path 449" d="M9,18a9,9,0,1,1,9-9,9.01,9.01,0,0,1-9,9M9,.552A8.448,8.448,0,1,0,17.448,9,8.457,8.457,0,0,0,9,.552" transform="translate(0 0)" fill="#1e1e1e"/>
    </g>
  </g>
</svg>
