<svg xmlns="http://www.w3.org/2000/svg" width="400" height="57.178" viewBox="0 0 400 57.178">
  <g id="Kompozycja_2" data-name="Kompozycja 2" transform="translate(200 28.589)">
    <g id="Group_18" data-name="Group 18" transform="translate(-200 -28.589)">
      <g id="Group_17" data-name="Group 17" transform="translate(0 0.016)">
        <g id="Group_15" data-name="Group 15" transform="translate(214.453)">
          <rect id="Rectangle_11" data-name="Rectangle 11" width="1.129" height="57.162" fill="#fff"/>
        </g>
        <g id="Group_16" data-name="Group 16" transform="translate(0 0)">
          <path id="Path_233" data-name="Path 233" d="M147.787,17.373q-4.215-3.787-11.458-3.787a21.242,21.242,0,0,0-15.767,6.438,21.6,21.6,0,0,0-6.347,15.767,21.537,21.537,0,0,0,6.369,15.79c4.245,4.28,9.494,5.565,15.745,5.565,4.859,0,8.679-.394,11.458-2.888v2.888h11.269V.016H147.787Zm-.382,21.313-10.76-2.88,2.927,10.96a11.2,11.2,0,0,1-2.819.389,10.547,10.547,0,0,1-8-3.479,11.214,11.214,0,0,1-3.267-7.884,12.194,12.194,0,0,1,.369-2.871l10.792,2.886-2.926-10.92a12.245,12.245,0,0,1,3.034-.409,10.571,10.571,0,0,1,7.884,3.218,11.116,11.116,0,0,1,3.149,8.1A12.028,12.028,0,0,1,147.406,38.686Z" transform="translate(3.249 -0.016)" fill="#fff"/>
          <path id="Path_234" data-name="Path 234" d="M7.368,10.15,0,17.515l10.06,2.69Z" transform="translate(-0.002 0.272)" fill="#fff"/>
          <path id="Path_235" data-name="Path 235" d="M98.489,37.643a9.023,9.023,0,1,1-18.046,0V11.684h-11V37.643c0,11.038,8.983,19.172,20.02,19.172a14.258,14.258,0,0,0,4.175-.742,19.877,19.877,0,0,0,4.849-2.149v2.891h11V11.684h-11Z" transform="translate(1.975 0.316)" fill="#fff"/>
          <path id="Path_236" data-name="Path 236" d="M190.6,21.954V10.96H180.13V.016h-11V10.96h-5.906V21.954h5.906V37.637a19.533,19.533,0,0,0,19.51,19.51V46.153a8.529,8.529,0,0,1-8.513-8.516V21.954Z" transform="translate(4.644 -0.016)" fill="#fff"/>
          <path id="Path_237" data-name="Path 237" d="M45.885,10.883a18.417,18.417,0,0,0-13.462,5.942,18.409,18.409,0,0,0-13.463-5.942,17.971,17.971,0,0,0-7.585,1.739v8.8H0V56.868H11V30.907c0-4.979,3.573-9.03,7.964-9.03s7.965,4.051,7.965,9.03v25.96h11V30.907c0-4.979,3.573-9.03,7.961-9.03s7.965,4.051,7.965,9.03v25.96h11V30.907C64.845,19.863,56.343,10.883,45.885,10.883Z" transform="translate(-0.002 0.293)" fill="#fff"/>
        </g>
      </g>
      <path id="Path_238" data-name="Path 238" d="M228.308,14.7V.6A.28.28,0,0,1,228.622.3h1.739a.317.317,0,0,1,.332.209l5.1,12.266L240.888.514A.359.359,0,0,1,241.24.3h1.739a.265.265,0,0,1,.294.294V14.7a.266.266,0,0,1-.294.3H241.61a.28.28,0,0,1-.313-.3V3.764l-4.485,10.993a.337.337,0,0,1-.352.228h-1.34a.353.353,0,0,1-.361-.228L230.275,3.764V14.69a.266.266,0,0,1-.3.3h-1.359a.28.28,0,0,1-.314-.3h0Z" transform="translate(6.496 0.009)" fill="#fff"/>
      <path id="Path_239" data-name="Path 239" d="M245.963,10.9V4.877a.266.266,0,0,1,.3-.3h1.321c.19,0,.276.1.276.3v5.748c0,1.72.883,2.727,2.451,2.727a2.568,2.568,0,0,0,2.727-2.727V4.877c0-.19.085-.3.276-.3h1.321a.266.266,0,0,1,.294.3v9.691a.266.266,0,0,1-.294.3h-1.235c-.209,0-.276-.085-.294-.314l-.067-1.3A3.647,3.647,0,0,1,249.7,15.11c-2.2,0-3.734-1.492-3.734-4.219h0Z" transform="translate(6.999 0.13)" fill="#fff"/>
      <path id="Path_240" data-name="Path 240" d="M257.567,14.584V4.893a.266.266,0,0,1,.3-.294H259.1c.209,0,.294.085.294.314l.067,1.3a3.647,3.647,0,0,1,3.335-1.863c2.2,0,3.733,1.492,3.733,4.2v6.043a.265.265,0,0,1-.294.294h-1.321c-.19,0-.276-.1-.276-.294V8.845c0-1.72-.883-2.746-2.452-2.746a2.583,2.583,0,0,0-2.726,2.746v5.749c0,.19-.085.294-.276.294h-1.321a.266.266,0,0,1-.3-.294h0Z" transform="translate(7.329 0.124)" fill="#fff"/>
      <path id="Path_241" data-name="Path 241" d="M269,1.149a1.127,1.127,0,0,1,1.13-1.131,1.112,1.112,0,0,1,1.112,1.131,1.111,1.111,0,0,1-1.112,1.13A1.126,1.126,0,0,1,269,1.149Zm.189,3.867c0-.19.086-.294.276-.294h1.322a.265.265,0,0,1,.294.294v9.691a.266.266,0,0,1-.294.3H269.47c-.189,0-.276-.1-.276-.3Z" transform="translate(7.655 0.001)" fill="#fff"/>
      <path id="Path_242" data-name="Path 242" d="M273.412,9.711a5.252,5.252,0,0,1,5.368-5.369,4.926,4.926,0,0,1,3.877,1.739.3.3,0,0,1,0,.437l-.732.693a.307.307,0,0,1-.484,0,3.29,3.29,0,0,0-2.6-1.13,3.476,3.476,0,0,0-3.582,3.629,3.509,3.509,0,0,0,3.629,3.649,3.225,3.225,0,0,0,2.556-1.093.323.323,0,0,1,.5-.038l.731.713a.283.283,0,0,1,0,.419,4.883,4.883,0,0,1-3.905,1.758A5.275,5.275,0,0,1,273.4,9.7h0Z" transform="translate(7.78 0.124)" fill="#fff"/>
      <path id="Path_243" data-name="Path 243" d="M284.9,14.708V.294A.265.265,0,0,1,285.2,0h1.321c.19,0,.276.1.276.294V6.337a3.647,3.647,0,0,1,3.335-1.863c2.2,0,3.734,1.492,3.734,4.2v6.043a.266.266,0,0,1-.3.294h-1.321c-.19,0-.276-.1-.276-.294V8.969c0-1.72-.883-2.746-2.451-2.746A2.583,2.583,0,0,0,286.8,8.969v5.749c0,.19-.085.294-.276.294H285.2a.265.265,0,0,1-.294-.294h0Z" transform="translate(8.107)" fill="#fff"/>
      <path id="Path_244" data-name="Path 244" d="M300.666,9.958V.6A.28.28,0,0,1,300.98.3h1.359a.266.266,0,0,1,.294.294V9.807c0,2.394,1.264,3.544,3.107,3.544s3.127-1.15,3.127-3.544V.6A.265.265,0,0,1,309.16.3h1.368a.266.266,0,0,1,.3.294V9.958c0,3.44-2.053,5.312-5.074,5.312s-5.073-1.863-5.073-5.312h-.009Z" transform="translate(8.556 0.009)" fill="#fff"/>
      <path id="Path_245" data-name="Path 245" d="M313.554,14.584V4.893a.265.265,0,0,1,.294-.294h1.235c.209,0,.294.085.294.314l.067,1.3a3.647,3.647,0,0,1,3.335-1.863c2.2,0,3.734,1.492,3.734,4.2v6.043a.266.266,0,0,1-.3.294H320.9c-.19,0-.276-.1-.276-.294V8.845c0-1.72-.883-2.746-2.451-2.746a2.583,2.583,0,0,0-2.727,2.746v5.749c0,.19-.085.294-.276.294h-1.321a.265.265,0,0,1-.294-.294h0Z" transform="translate(8.923 0.124)" fill="#fff"/>
      <path id="Path_246" data-name="Path 246" d="M324.991,1.149A1.128,1.128,0,0,1,326.122.018a1.112,1.112,0,0,1,1.112,1.131,1.111,1.111,0,0,1-1.112,1.13A1.127,1.127,0,0,1,324.991,1.149Zm.19,3.867c0-.19.085-.294.276-.294h1.321a.265.265,0,0,1,.294.294v9.691a.266.266,0,0,1-.294.3h-1.321c-.19,0-.276-.1-.276-.3Z" transform="translate(9.248 0.001)" fill="#fff"/>
      <path id="Path_247" data-name="Path 247" d="M333.173,14.616l-3.839-9.673c-.085-.227,0-.361.228-.361h1.34a.325.325,0,0,1,.332.257l2.974,7.886,2.974-7.886a.34.34,0,0,1,.332-.257h1.34c.227,0,.313.123.227.361l-3.838,9.673a.379.379,0,0,1-.381.248h-1.339a.392.392,0,0,1-.381-.248Z" transform="translate(9.371 0.13)" fill="#fff"/>
      <path id="Path_248" data-name="Path 248" d="M339.939,9.692a5.111,5.111,0,0,1,5.207-5.35,4.692,4.692,0,0,1,4.846,4.865c0,.836-.171,1.217-.865,1.217h-7.344a3.5,3.5,0,0,0,3.82,3.145,4.561,4.561,0,0,0,2.793-.883.228.228,0,0,1,.332.019l.466.646c.142.172.085.3-.085.437a5.171,5.171,0,0,1-3.668,1.322,5.259,5.259,0,0,1-5.492-5.435v.02Zm8.372-.665a3.024,3.024,0,0,0-3.165-3.06,3.205,3.205,0,0,0-3.354,3.06h6.518Z" transform="translate(9.673 0.124)" fill="#fff"/>
      <path id="Path_249" data-name="Path 249" d="M352.088,14.584V4.893a.266.266,0,0,1,.3-.294h1.235c.209,0,.294.085.294.314l.067,1.216a2.4,2.4,0,0,1,2.327-1.786,1.742,1.742,0,0,1,.941.209.42.42,0,0,1,.171.381V5.976c0,.228-.142.276-.379.209a3.262,3.262,0,0,0-.751-.1c-1.72,0-2.309,1.444-2.309,2.688v5.815c0,.19-.085.3-.276.3h-1.321a.266.266,0,0,1-.3-.3Z" transform="translate(10.019 0.124)" fill="#fff"/>
      <path id="Path_250" data-name="Path 250" d="M358.983,13.53a.418.418,0,0,1,0-.542l.419-.588a.3.3,0,0,1,.5-.02,3.394,3.394,0,0,0,2.47,1.112c1.025,0,1.8-.466,1.8-1.406,0-.836-.542-1.217-1.473-1.6l-1.235-.523c-1.264-.522-2.29-1.321-2.29-2.765,0-1.786,1.511-2.851,3.268-2.851a3.946,3.946,0,0,1,3.127,1.473.323.323,0,0,1-.019.437l-.5.589c-.171.209-.314.19-.5,0a2.786,2.786,0,0,0-2.014-.94c-.865,0-1.549.437-1.549,1.254,0,.865.627,1.2,1.549,1.549l1.13.466c1.321.541,2.394,1.368,2.376,2.955,0,1.948-1.682,3-3.591,3a4.415,4.415,0,0,1-3.487-1.6h.018Z" transform="translate(10.213 0.124)" fill="#fff"/>
      <path id="Path_251" data-name="Path 251" d="M368.2,1.149a1.127,1.127,0,0,1,1.13-1.131,1.112,1.112,0,0,1,1.112,1.131,1.111,1.111,0,0,1-1.112,1.13A1.126,1.126,0,0,1,368.2,1.149Zm.189,3.867c0-.19.085-.294.276-.294h1.321a.266.266,0,0,1,.3.294v9.691a.266.266,0,0,1-.3.3h-1.321c-.19,0-.276-.1-.276-.3Z" transform="translate(10.478 0.001)" fill="#fff"/>
      <path id="Path_252" data-name="Path 252" d="M373.927,12.639V6.2h-1.321a.294.294,0,0,1-.314-.314V4.962a.28.28,0,0,1,.314-.294h1.321V2.235a.266.266,0,0,1,.3-.3h1.321c.19,0,.276.1.276.3V4.667h1.72a.265.265,0,0,1,.294.294v.922a.28.28,0,0,1-.294.314h-1.72v6.185c0,.761.332,1.046.941,1.046.171,0,.436-.02.646-.038.294-.02.4.085.4.294v.883c0,.4-.865.5-1.445.5a2.177,2.177,0,0,1-2.432-2.432Z" transform="translate(10.594 0.055)" fill="#fff"/>
      <path id="Path_253" data-name="Path 253" d="M381.888,18.54l1.445-3.629L379.39,4.943c-.086-.227,0-.361.227-.361h1.34a.325.325,0,0,1,.332.257l2.974,7.886,2.974-7.886a.362.362,0,0,1,.352-.257h1.321c.228,0,.332.123.247.361L383.722,18.6a.355.355,0,0,1-.361.248h-1.3c-.21,0-.3-.123-.21-.314h.038Z" transform="translate(10.795 0.13)" fill="#fff"/>
      <path id="Path_254" data-name="Path 254" d="M228.308,30.641a4.106,4.106,0,1,1,4.115,4.181A4.067,4.067,0,0,1,228.308,30.641Zm4.115,2.812a2.647,2.647,0,0,0,2.679-2.812,2.688,2.688,0,1,0-5.369,0A2.644,2.644,0,0,0,232.423,33.453Z" transform="translate(6.496 0.753)" fill="#fff"/>
      <path id="Path_255" data-name="Path 255" d="M238.7,34.5V27.94h-.941a.234.234,0,0,1-.247-.247v-.713a.22.22,0,0,1,.247-.228h.941V25.109a2.322,2.322,0,0,1,3.174-2.119.205.205,0,0,1,.142.209v.894c0,.113-.095.133-.209.113a4.572,4.572,0,0,0-.57-.047c-.884,0-1.055.522-1.055,1.207v1.386h1.6a.225.225,0,0,1,.247.228v.713a.234.234,0,0,1-.247.247h-1.6V34.5a.206.206,0,0,1-.228.228h-1.025a.21.21,0,0,1-.228-.228Z" transform="translate(6.758 0.65)" fill="#fff"/>
      <path id="Path_256" data-name="Path 256" d="M246.961,34.483V23.546a.221.221,0,0,1,.247-.228h2.718c3.924,0,5.8,2.461,5.8,5.692s-1.872,5.692-5.8,5.692h-2.718a.225.225,0,0,1-.247-.227h0Zm2.936-1.13c2.946,0,4.275-1.616,4.275-4.324s-1.33-4.342-4.275-4.342h-1.4v8.675h1.4Z" transform="translate(7.027 0.664)" fill="#fff"/>
      <path id="Path_257" data-name="Path 257" d="M257.355,23.98a.869.869,0,1,1,1.738,0,.869.869,0,1,1-1.738,0Zm.142,2.993c0-.142.067-.228.21-.228h1.025a.21.21,0,0,1,.228.228v7.516a.21.21,0,0,1-.228.228h-1.025c-.143,0-.21-.085-.21-.228Z" transform="translate(7.323 0.658)" fill="#fff"/>
      <path id="Path_258" data-name="Path 258" d="M261.923,37.168a.279.279,0,0,1-.114-.371l.3-.57a.221.221,0,0,1,.323-.095,4.21,4.21,0,0,0,2.242.617c1.435,0,2.793-.637,2.793-2.508V33.025a3.165,3.165,0,0,1-2.86,1.5,3.775,3.775,0,0,1-3.857-4.038,3.756,3.756,0,0,1,3.838-4.019,3.173,3.173,0,0,1,2.9,1.529l.019-1.1a.21.21,0,0,1,.228-.228h.941c.142,0,.209.085.209.228v7.4c0,2.65-2.062,3.677-4.114,3.677a5.048,5.048,0,0,1-2.86-.8h.009Zm2.926-3.991a2.486,2.486,0,0,0,2.6-2.67,2.628,2.628,0,1,0-5.254-.028A2.561,2.561,0,0,0,264.849,33.177Z" transform="translate(7.42 0.753)" fill="#fff"/>
      <path id="Path_259" data-name="Path 259" d="M270.788,23.98a.872.872,0,0,1,.874-.874.874.874,0,1,1-.874.874Zm.152,2.993c0-.142.066-.228.209-.228h1.026a.21.21,0,0,1,.227.228v7.516a.21.21,0,0,1-.227.228h-1.026c-.143,0-.209-.085-.209-.228Z" transform="translate(7.705 0.658)" fill="#fff"/>
      <path id="Path_260" data-name="Path 260" d="M275.239,32.889v-5h-1.026a.234.234,0,0,1-.247-.247v-.713a.22.22,0,0,1,.247-.228h1.026v-1.89a.21.21,0,0,1,.228-.228h1.025c.143,0,.21.085.21.228V26.7h1.33a.21.21,0,0,1,.228.228v.713a.224.224,0,0,1-.228.247H276.7v4.8c0,.589.256.817.731.817.133,0,.342-.019.5-.028.227-.02.3.066.3.227v.684c0,.314-.664.39-1.121.39a1.694,1.694,0,0,1-1.89-1.89Z" transform="translate(7.796 0.7)" fill="#fff"/>
      <path id="Path_261" data-name="Path 261" d="M279.435,30.641a3.913,3.913,0,0,1,3.887-4.181,3.224,3.224,0,0,1,2.946,1.643l.029-1.217c0-.142.066-.227.209-.227h.94a.21.21,0,0,1,.228.227V34.4a.21.21,0,0,1-.228.228h-.94c-.143,0-.209-.085-.209-.228l-.029-1.188a3.259,3.259,0,0,1-2.946,1.616,3.9,3.9,0,0,1-3.887-4.181h0Zm4.153,2.831a2.6,2.6,0,0,0,2.65-2.813,2.63,2.63,0,0,0-2.65-2.85,2.677,2.677,0,0,0-2.718,2.831A2.666,2.666,0,0,0,283.588,33.472Z" transform="translate(7.951 0.753)" fill="#fff"/>
      <path id="Path_262" data-name="Path 262" d="M289.7,34.49V23.315a.211.211,0,0,1,.228-.228h1.026a.211.211,0,0,1,.228.228V34.49a.21.21,0,0,1-.228.228h-1.026A.21.21,0,0,1,289.7,34.49Z" transform="translate(8.244 0.657)" fill="#fff"/>
      <path id="Path_263" data-name="Path 263" d="M298.993,34.483V24.677h-2.376a.225.225,0,0,1-.247-.228v-.894a.22.22,0,0,1,.247-.227h6.261a.205.205,0,0,1,.228.227v.894a.206.206,0,0,1-.228.228H300.5v9.805a.206.206,0,0,1-.228.228H299.22a.209.209,0,0,1-.227-.228Z" transform="translate(8.433 0.664)" fill="#fff"/>
      <path id="Path_264" data-name="Path 264" d="M303.04,30.6a3.965,3.965,0,0,1,4.039-4.153,3.635,3.635,0,0,1,3.753,3.772c0,.656-.134.941-.665.941h-5.692a2.72,2.72,0,0,0,2.965,2.442,3.568,3.568,0,0,0,2.166-.684c.095-.067.2-.067.256.019l.362.5c.113.133.066.228-.067.342a4.022,4.022,0,0,1-2.851,1.025A4.081,4.081,0,0,1,303.04,30.6Zm6.5-.513a2.349,2.349,0,0,0-2.46-2.376,2.486,2.486,0,0,0-2.6,2.376Z" transform="translate(8.623 0.753)" fill="#fff"/>
      <path id="Path_265" data-name="Path 265" d="M312.076,30.621a4.066,4.066,0,0,1,4.161-4.161,3.828,3.828,0,0,1,3.012,1.349.24.24,0,0,1,0,.341l-.571.542a.237.237,0,0,1-.37,0,2.545,2.545,0,0,0-2.015-.874,2.822,2.822,0,0,0,.029,5.644,2.525,2.525,0,0,0,1.986-.846.251.251,0,0,1,.39-.028l.57.55a.219.219,0,0,1,0,.324,3.789,3.789,0,0,1-3.022,1.368,4.087,4.087,0,0,1-4.161-4.2h-.009Z" transform="translate(8.88 0.753)" fill="#fff"/>
      <path id="Path_266" data-name="Path 266" d="M320.991,34.49V23.315a.21.21,0,0,1,.228-.228h1.025c.143,0,.21.086.21.228V28a2.809,2.809,0,0,1,2.585-1.444c1.709,0,2.9,1.159,2.9,3.249V34.49a.21.21,0,0,1-.227.228h-1.026c-.143,0-.209-.085-.209-.228V30.033c0-1.33-.685-2.128-1.9-2.128a2.006,2.006,0,0,0-2.119,2.128V34.49c0,.143-.067.228-.21.228h-1.025A.21.21,0,0,1,320.991,34.49Z" transform="translate(9.134 0.657)" fill="#fff"/>
      <path id="Path_267" data-name="Path 267" d="M329.98,34.394V26.878a.21.21,0,0,1,.228-.228h.96c.161,0,.228.067.228.248l.047,1.007a2.81,2.81,0,0,1,2.585-1.444c1.71,0,2.9,1.159,2.9,3.249v4.685a.21.21,0,0,1-.228.228h-1.026c-.143,0-.209-.085-.209-.228V29.937c0-1.33-.684-2.128-1.9-2.128a2.007,2.007,0,0,0-2.119,2.128v4.456c0,.143-.067.228-.209.228h-1.026A.21.21,0,0,1,329.98,34.394Z" transform="translate(9.39 0.753)" fill="#fff"/>
      <path id="Path_268" data-name="Path 268" d="M338.581,30.641a4.106,4.106,0,1,1,4.115,4.181A4.067,4.067,0,0,1,338.581,30.641Zm4.124,2.812a2.654,2.654,0,0,0,2.688-2.812,2.692,2.692,0,1,0-5.378,0A2.644,2.644,0,0,0,342.705,33.453Z" transform="translate(9.635 0.753)" fill="#fff"/>
      <path id="Path_269" data-name="Path 269" d="M348.421,34.49V23.315a.21.21,0,0,1,.227-.228h1.026a.21.21,0,0,1,.228.228V34.49a.21.21,0,0,1-.228.228h-1.026A.21.21,0,0,1,348.421,34.49Z" transform="translate(9.915 0.657)" fill="#fff"/>
      <path id="Path_270" data-name="Path 270" d="M351.71,30.641a4.105,4.105,0,1,1,4.114,4.181A4.066,4.066,0,0,1,351.71,30.641Zm4.114,2.812a2.647,2.647,0,0,0,2.679-2.812,2.688,2.688,0,1,0-5.369,0A2.644,2.644,0,0,0,355.824,33.453Z" transform="translate(10.009 0.753)" fill="#fff"/>
      <path id="Path_271" data-name="Path 271" d="M362.3,37.168a.281.281,0,0,1-.114-.371l.3-.57a.221.221,0,0,1,.323-.095,4.211,4.211,0,0,0,2.243.617c1.435,0,2.793-.637,2.793-2.508V33.025a3.168,3.168,0,0,1-2.86,1.5,3.776,3.776,0,0,1-3.858-4.038,3.756,3.756,0,0,1,3.838-4.019,3.172,3.172,0,0,1,2.9,1.529l.02-1.1a.21.21,0,0,1,.227-.228h.941c.143,0,.209.085.209.228v7.4c0,2.65-2.062,3.677-4.114,3.677a5.053,5.053,0,0,1-2.86-.8h.009Zm2.927-3.991a2.486,2.486,0,0,0,2.6-2.67,2.628,2.628,0,1,0-5.254-.028A2.561,2.561,0,0,0,365.228,33.177Z" transform="translate(10.277 0.753)" fill="#fff"/>
      <path id="Path_272" data-name="Path 272" d="M371.166,23.98a.87.87,0,1,1,1.739,0,.87.87,0,1,1-1.739,0Zm.152,2.993c0-.142.067-.228.209-.228h1.026a.21.21,0,0,1,.228.228v7.516a.21.21,0,0,1-.228.228h-1.026c-.142,0-.209-.085-.209-.228Z" transform="translate(10.562 0.658)" fill="#fff"/>
      <path id="Path_273" data-name="Path 273" d="M374.584,30.6a3.965,3.965,0,0,1,4.039-4.153,3.635,3.635,0,0,1,3.753,3.772c0,.656-.133.941-.664.941H376.02a2.719,2.719,0,0,0,2.964,2.442,3.568,3.568,0,0,0,2.166-.684c.1-.067.2-.067.257.019l.361.5c.114.133.067.228-.067.342a4.02,4.02,0,0,1-2.85,1.025A4.082,4.082,0,0,1,374.584,30.6Zm6.491-.513a2.35,2.35,0,0,0-2.461-2.376,2.487,2.487,0,0,0-2.6,2.376Z" transform="translate(10.66 0.753)" fill="#fff"/>
      <path id="Path_274" data-name="Path 274" d="M383.613,33.587c-.114-.134-.1-.257,0-.428l.323-.457a.241.241,0,0,1,.39-.019,2.647,2.647,0,0,0,1.919.865c.8,0,1.4-.361,1.4-1.093,0-.655-.428-.94-1.141-1.235l-.96-.408c-.978-.408-1.777-1.026-1.777-2.147A2.308,2.308,0,0,1,386.3,26.45a3.052,3.052,0,0,1,2.423,1.141.251.251,0,0,1-.019.342l-.39.456c-.134.161-.247.143-.39,0a2.152,2.152,0,0,0-1.558-.731c-.665,0-1.206.341-1.206.978s.484.932,1.206,1.207l.874.361a2.438,2.438,0,0,1,1.843,2.289c0,1.511-1.3,2.328-2.784,2.328a3.415,3.415,0,0,1-2.7-1.235Z" transform="translate(10.914 0.753)" fill="#fff"/>
      <path id="Path_275" data-name="Path 275" d="M240.054,51.866l3.442-9.472a.25.25,0,0,1,.255-.166h.612a.251.251,0,0,1,.255.166l3.441,9.472c.051.141,0,.243-.152.243h-.536c-.114,0-.166-.038-.217-.166l-.778-2.155h-4.666l-.764,2.155a.214.214,0,0,1-.243.166h-.51c-.152,0-.216-.1-.152-.243Zm6.043-2.881-2.053-5.737-2.053,5.737Z" transform="translate(6.829 1.202)" fill="#fff"/>
      <path id="Path_276" data-name="Path 276" d="M249.7,54.517v-9.2c0-.128.038-.2.166-.2h.472c.128,0,.166.076.166.2l.026,1.224a3,3,0,0,1,2.741-1.593,3.639,3.639,0,0,1,0,7.266,2.953,2.953,0,0,1-2.729-1.542v3.85c0,.128-.051.2-.179.2h-.5C249.735,54.721,249.7,54.644,249.7,54.517Zm3.467-3.123a2.833,2.833,0,0,0,0-5.661,2.619,2.619,0,0,0-2.638,2.856,2.572,2.572,0,0,0,2.638,2.792h0Z" transform="translate(7.105 1.279)" fill="#fff"/>
      <path id="Path_277" data-name="Path 277" d="M258.324,54.517v-9.2c0-.128.038-.2.166-.2h.472c.128,0,.166.076.166.2l.026,1.224a3,3,0,0,1,2.741-1.593,3.639,3.639,0,0,1,0,7.266,2.953,2.953,0,0,1-2.729-1.542v3.85c0,.128-.05.2-.178.2h-.5c-.128,0-.166-.076-.166-.2Zm3.468-3.123a2.833,2.833,0,0,0,0-5.661,2.619,2.619,0,0,0-2.639,2.856,2.573,2.573,0,0,0,2.639,2.792h0Z" transform="translate(7.351 1.279)" fill="#fff"/>
      <path id="Path_278" data-name="Path 278" d="M266.952,51.923v-9.7c0-.128.038-.2.166-.2h.5c.128,0,.179.076.179.2v9.7c0,.128-.051.2-.179.2h-.5C266.99,52.127,266.952,52.051,266.952,51.923Z" transform="translate(7.596 1.196)" fill="#fff"/>
      <path id="Path_279" data-name="Path 279" d="M269.79,42.74a.566.566,0,0,1,.562-.561.561.561,0,0,1,0,1.122A.566.566,0,0,1,269.79,42.74Zm.141,2.651c0-.128.038-.2.166-.2h.5c.128,0,.166.076.166.2v6.528c0,.128-.038.2-.166.2h-.5c-.128,0-.166-.076-.166-.2Z" transform="translate(7.677 1.201)" fill="#fff"/>
      <path id="Path_280" data-name="Path 280" d="M272.567,48.551a3.414,3.414,0,0,1,3.455-3.6,3.156,3.156,0,0,1,3.225,3.264c0,.5-.089.662-.471.662h-5.393a2.7,2.7,0,0,0,2.894,2.6,3.216,3.216,0,0,0,2.065-.7.156.156,0,0,1,.2,0l.2.255c.1.128.038.191-.051.293a3.706,3.706,0,0,1-6.119-2.767h0Zm5.928-.37a2.38,2.38,0,0,0-2.486-2.472A2.5,2.5,0,0,0,273.4,48.18Z" transform="translate(7.756 1.28)" fill="#fff"/>
      <path id="Path_281" data-name="Path 281" d="M280.55,48.66a3.419,3.419,0,0,1,3.429-3.634,2.977,2.977,0,0,1,2.729,1.568V42.222c0-.128.038-.2.166-.2h.5c.128,0,.179.076.179.2v9.7c0,.128-.051.2-.179.2h-.445c-.128,0-.179-.076-.179-.2l-.026-1.2a2.927,2.927,0,0,1-2.728,1.567,3.4,3.4,0,0,1-3.43-3.633Zm3.531,2.817a2.586,2.586,0,0,0,2.639-2.791,2.639,2.639,0,0,0-2.639-2.856,2.833,2.833,0,0,0,0,5.661h0Z" transform="translate(7.983 1.196)" fill="#fff"/>
      <path id="Path_282" data-name="Path 282" d="M292.042,50.824a.21.21,0,0,1,.026-.306l.243-.267a.191.191,0,0,1,.319.026,2.656,2.656,0,0,0,2.307,1.186c1.351,0,2.129-.739,2.129-1.836s-.841-1.632-1.912-2.142l-1.2-.6a2.557,2.557,0,0,1-1.7-2.358,2.455,2.455,0,0,1,2.677-2.41,3.2,3.2,0,0,1,2.589,1.236c.128.153.1.229,0,.345l-.217.242a.214.214,0,0,1-.357,0,2.449,2.449,0,0,0-1.989-.995c-1.033,0-1.848.523-1.848,1.568,0,.765.421,1.275,1.326,1.708l1.186.574c1.172.574,2.281,1.275,2.281,2.83A2.721,2.721,0,0,1,294.9,52.29a3.3,3.3,0,0,1-2.881-1.453h.025Z" transform="translate(8.309 1.199)" fill="#fff"/>
      <path id="Path_283" data-name="Path 283" d="M299.317,48.577a3.537,3.537,0,0,1,3.595-3.634,3.264,3.264,0,0,1,2.575,1.134c.089.128.115.191.026.281l-.267.255a.184.184,0,0,1-.306,0,2.524,2.524,0,0,0-1.989-.867,2.837,2.837,0,0,0,.013,5.673,2.491,2.491,0,0,0,1.963-.829c.1-.1.217-.166.345-.038l.267.267c.089.089.05.153-.026.268a3.216,3.216,0,0,1-2.6,1.147,3.526,3.526,0,0,1-3.582-3.633h-.012Z" transform="translate(8.517 1.279)" fill="#fff"/>
      <path id="Path_284" data-name="Path 284" d="M307.089,42.74a.566.566,0,0,1,.561-.561.561.561,0,0,1,0,1.122A.566.566,0,0,1,307.089,42.74Zm.14,2.651c0-.128.038-.2.166-.2h.5c.128,0,.166.076.166.2v6.528c0,.128-.038.2-.166.2h-.5c-.128,0-.166-.076-.166-.2Z" transform="translate(8.738 1.201)" fill="#fff"/>
      <path id="Path_285" data-name="Path 285" d="M309.865,48.551a3.415,3.415,0,0,1,3.456-3.6,3.156,3.156,0,0,1,3.225,3.264c0,.5-.089.662-.472.662h-5.392a2.712,2.712,0,0,0,2.894,2.6,3.216,3.216,0,0,0,2.065-.7.156.156,0,0,1,.2,0l.2.255c.1.128.038.191-.05.293a3.706,3.706,0,0,1-6.119-2.767h0Zm5.928-.37a2.379,2.379,0,0,0-2.486-2.472,2.5,2.5,0,0,0-2.613,2.472Z" transform="translate(8.817 1.28)" fill="#fff"/>
      <path id="Path_286" data-name="Path 286" d="M318.183,51.84V45.312c0-.128.038-.2.166-.2h.434c.152,0,.2.051.2.217l.038.905a2.557,2.557,0,0,1,2.333-1.288c1.518,0,2.525.969,2.525,2.8v4.08c0,.128-.051.2-.179.2h-.5c-.128,0-.166-.076-.166-.2V47.786a1.822,1.822,0,0,0-1.887-2.065,2,2,0,0,0-2.117,2.065v4.042c0,.128-.05.2-.178.2h-.5c-.128,0-.166-.076-.166-.2h0Z" transform="translate(9.054 1.279)" fill="#fff"/>
      <path id="Path_287" data-name="Path 287" d="M325.558,48.577a3.537,3.537,0,0,1,3.6-3.634,3.265,3.265,0,0,1,2.575,1.134c.089.128.114.191.026.281l-.268.255a.183.183,0,0,1-.305,0,2.524,2.524,0,0,0-1.989-.867,2.837,2.837,0,0,0,.012,5.673,2.491,2.491,0,0,0,1.963-.829c.1-.1.217-.166.345-.038l.267.267c.089.089.051.153-.025.268a3.218,3.218,0,0,1-2.6,1.147,3.526,3.526,0,0,1-3.582-3.633h-.013Z" transform="translate(9.264 1.279)" fill="#fff"/>
      <path id="Path_288" data-name="Path 288" d="M332.847,48.551a3.414,3.414,0,0,1,3.455-3.6,3.155,3.155,0,0,1,3.225,3.264c0,.5-.088.662-.471.662h-5.393a2.712,2.712,0,0,0,2.894,2.6,3.214,3.214,0,0,0,2.065-.7.157.157,0,0,1,.2,0l.2.255c.1.128.038.191-.051.293a3.706,3.706,0,0,1-6.119-2.767h0Zm5.928-.37a2.38,2.38,0,0,0-2.486-2.472,2.5,2.5,0,0,0-2.613,2.472Z" transform="translate(9.472 1.28)" fill="#fff"/>
      <path id="Path_289" data-name="Path 289" d="M340.832,51.191a.274.274,0,0,1-.026-.357l.166-.217a.185.185,0,0,1,.306,0,2.221,2.221,0,0,0,1.721.8c.879,0,1.491-.395,1.491-1.186,0-.7-.484-1.033-1.16-1.313l-.8-.344c-.828-.357-1.567-.841-1.567-1.849a1.884,1.884,0,0,1,2.065-1.81,2.471,2.471,0,0,1,1.976.931.208.208,0,0,1-.012.306l-.153.178c-.128.14-.217.128-.345,0a1.85,1.85,0,0,0-1.44-.688c-.651,0-1.275.319-1.275,1.045s.51.969,1.275,1.288l.637.267c.905.37,1.645.893,1.645,1.963a2.068,2.068,0,0,1-2.32,1.963,2.744,2.744,0,0,1-2.193-1.019v.025Z" transform="translate(9.697 1.278)" fill="#fff"/>
      <rect id="Rectangle_12" data-name="Rectangle 12" width="1.133" height="57.164" transform="translate(214.466)" fill="#fff"/>
      <path id="Path_290" data-name="Path 290" d="M228.327,49.559c0-1.479.879-2.256,2.282-3.187a3.352,3.352,0,0,1-1.186-2.256,2.039,2.039,0,0,1,4.067,0c0,1.033-.727,1.734-1.746,2.422l2.473,2.767.993-1.606a.186.186,0,0,1,.179-.115h.574c.064,0,.14.051.064.167l-1.3,2.154,1.492,1.658a.187.187,0,0,1-.013.293l-.242.243a.179.179,0,0,1-.293-.013l-1.365-1.543a3.923,3.923,0,0,1-3.148,1.7A2.6,2.6,0,0,1,228.327,49.559Zm2.932,1.9a3.236,3.236,0,0,0,2.537-1.492l-2.678-3c-1.172.791-1.912,1.351-1.912,2.512A1.9,1.9,0,0,0,231.259,51.458Zm-.013-5.469c.893-.586,1.441-1.058,1.441-1.81a1.224,1.224,0,0,0-2.448-.026,2.992,2.992,0,0,0,1.02,1.836Z" transform="translate(6.497 1.202)" fill="#fff"/>
    </g>
  </g>
</svg>
